<svg width="26" height="26" viewBox="0 0 26 26" xmlns="http://www.w3.org/2000/svg">
<path d="M 7.5,3 C 7.223,3 7,3.223 7,3.5 l 0,3 C 7,6.777 7.223,7 7.5,7 l 1,0 C 8.777,7 9,6.777 9,6.5 l 0,-3 C 9,3.223 8.777,3 8.5,3 Z m 9,0 C 16.223,3 16,3.223 16,3.5 l 0,3 C 16,6.777 16.223,7 16.5,7 l 1,0 C 17.777,7 18,6.777 18,6.5 l 0,-3 C 18,3.223 17.777,3 17.5,3 Z M 4.5,5 C 4.223869,5.000028 4.000028,5.223869 4,5.5 l 0,16 c 2.8e-5,0.276131 0.223869,0.499972 0.5,0.5 l 16,0 c 0.276131,-2.8e-5 0.499972,-0.223869 0.5,-0.5 l 0,-16 C 20.999972,5.223869 20.776131,5.000028 20.5,5 L 19,5 19,7.5 C 19,7.777 18.777,8 18.5,8 l -3,0 C 15.223,8 15,7.777 15,7.5 L 15,5 10,5 10,7.5 C 10,7.777 9.777,8 9.5,8 l -3,0 C 6.223,8 6,7.777 6,7.5 L 6,5 Z m 0.5,5 15,0 0,11 -15,0 z" transform="" style="opacity: 1; fill: #000000; fill-opacity: 1; stroke: none; stroke-width: 1; stroke-linecap: round; stroke-linejoin: round; stroke-miterlimit: 4; stroke-dasharray: none; stroke-dashoffset: 0; stroke-opacity: 1;" />
<path d="m 16.9043,11.255655 c 0.12859,7.56e-4 0.25753,0.0505 0.35547,0.148438 l 0.70703,0.707031 c 0.19587,0.195869 0.19587,0.511163 0,0.707031 l -6.27735,6.779297 c -0.19587,0.195869 -0.51116,0.195869 -0.70703,0 L 7.0332,15.648234 c -0.19587,-0.195869 -0.19587,-0.511163 0,-0.707032 l 0.70703,-0.708984 c 0.19587,-0.195869 0.51117,-0.195869 0.70704,0 l 2.88867,2.890625 5.21679,-5.71875 c 0.0948,-0.100958 0.22298,-0.149194 0.35157,-0.148438 z" transform="" style="opacity: 1; fill: #000000; fill-opacity: 1; stroke: none; stroke-width: 1; stroke-linecap: round; stroke-linejoin: round; stroke-miterlimit: 4; stroke-dasharray: none; stroke-dashoffset: 0; stroke-opacity: 1;" />
</svg>