<svg width="26" height="26" viewBox="0 0 26 26" xmlns="http://www.w3.org/2000/svg">
<path d="m 19.491983,13 c 0.444526,-1.74e-4 0.667105,-0.53756 0.352887,-0.851996 l -1.732665,-1.732662 c 0,0 -0.05897,-0.7628064 3.224648,-4.0464234 0.489926,-0.470415 -0.235356,-1.195698 -0.705772,-0.705772 -3.294105,3.294105 -4.046423,3.224647 -4.046423,3.224647 L 14.851995,7.1551306 C 14.537559,6.8409116 14.000173,7.0634906 14,7.5080166 l 0,4.9928734 c 2.8e-5,0.275639 0.22347,0.499082 0.499109,0.49911 z" transform="" style="opacity: 1; fill: #000000; fill-opacity: 1; stroke: none; stroke-width: 1px; stroke-linecap: butt; stroke-linejoin: round; stroke-miterlimit: 4; stroke-dasharray: none; stroke-dashoffset: 0; stroke-opacity: 1;" />
<path d="m 7.5080167,14 c -0.444526,1.74e-4 -0.667105,0.53756 -0.352887,0.851996 l 1.732665,1.732662 c 0,0 -0.128534,0.950322 -3.224648,4.046423 -0.489926,0.470415 0.235356,1.195698 0.705772,0.705772 3.137855,-3.137855 4.0464233,-3.224647 4.0464233,-3.224647 l 1.732663,1.732663 C 12.462441,20.159088 12.999827,19.936509 13,19.491983 L 13,14.49911 C 12.999972,14.223471 12.77653,14.000028 12.500891,14 Z" transform="" style="opacity: 1; fill: #000000; fill-opacity: 1; stroke: none; stroke-width: 1px; stroke-linecap: butt; stroke-linejoin: round; stroke-miterlimit: 4; stroke-dasharray: none; stroke-dashoffset: 0; stroke-opacity: 1;" />
</svg>