<svg width="26" height="26" viewBox="0 0 26 26" xmlns="http://www.w3.org/2000/svg">
<path d="m 14.5,17 0,4.5 -11,0 0,-14.9999998 6,0 L 12.5,9.5" transform="" style="opacity: 1; fill: none; fill-opacity: 1; stroke: #000000; stroke-width: 1; stroke-linecap: round; stroke-linejoin: round; stroke-miterlimit: 4; stroke-dasharray: none; stroke-dashoffset: 0; stroke-opacity: 1;" />
<path d="m 5.5,19.5 6,0 m -6,-2 2,0 m -2,-2 2,0 m -2,-2 3,0 m -3,-2 5,0 m -5,-2 4,0" transform="" style="fill: none; stroke: #000000; stroke-width: 1px; stroke-linecap: round; stroke-linejoin: miter; stroke-opacity: 1;" />
<path d="M 21.492188,3 C 21.3623,3.0021 21.238317,3.05461 21.146484,3.146484 l -2,2 c -0.195184,0.195265 -0.195184,0.511766 0,0.707031 l 2,2 c 0.195265,0.195185 0.511767,0.195185 0.707032,0 l 2,-2 c 0.195184,-0.195265 0.195184,-0.511766 0,-0.707031 l -2,-2 C 21.757854,3.050778 21.627489,2.997928 21.492188,3 Z m -2.998047,2.99414 c -0.449403,9.07e-5 -0.670588,0.5468396 -0.347657,0.859375 L 21.292969,10 17.646484,13.646484 c -0.490773,0.471255 0.235777,1.197805 0.707032,0.707032 l 4,-4 c 0.195185,-0.195265 0.195185,-0.511767 0,-0.707032 l -3.5,-3.5 C 18.759309,6.0491151 18.629624,5.9941401 18.494141,5.99414 Z M 17.492188,7 C 17.3623,7.0021 17.238317,7.05461 17.146484,7.146484 l -4,4 c -0.195184,0.195265 -0.195184,0.511767 0,0.707032 l 2,2 c 0.195265,0.195184 0.511767,0.195184 0.707032,0 l 4,-4 c 0.195185,-0.195265 0.195185,-0.511767 0,-0.707032 l -2,-2 C 17.757854,7.050778 17.627488,6.997927 17.492188,7 Z m -5,5 c -0.186792,0.0031 -0.356277,0.110065 -0.439454,0.277344 l -1,2 c -0.09573,0.192261 -0.05799,0.424177 0.09375,0.576172 l 1,1 c 0.151995,0.151742 0.383911,0.189477 0.576172,0.09375 l 2,-1 c 0.305521,-0.152285 0.372011,-0.559162 0.13086,-0.800782 l -2,-2 C 12.757854,12.050778 12.627489,11.997928 12.492188,12 Z M 10.5,15.5 l -1,2 2,-1 z" transform="" style="opacity: 1; fill: #000000; fill-opacity: 1; stroke: none; stroke-width: 1px; stroke-linecap: round; stroke-linejoin: round; stroke-miterlimit: 4; stroke-dasharray: none; stroke-dashoffset: 0; stroke-opacity: 1;" />
</svg>