<svg width="26" height="26" viewBox="0 0 26 26" xmlns="http://www.w3.org/2000/svg">
<path d="M 19.492188 4 C 19.3623 4.00207 19.238317 4.054606 19.146484 4.1464844 L 17.146484 6.1464844 C 16.9513 6.3417493 16.9513 6.6582507 17.146484 6.8535156 L 19.146484 8.8535156 C 19.341749 9.0487 19.658251 9.0487 19.853516 8.8535156 L 21.853516 6.8535156 C 22.0487 6.6582507 22.0487 6.3417493 21.853516 6.1464844 L 19.853516 4.1464844 C 19.757854 4.0507785 19.627489 3.9979278 19.492188 4 z M 16.494141 6.9941406 A 0.50005 0.50005 0 0 0 16.146484 7.8535156 L 19.292969 11 L 15.646484 14.646484 A 0.50005 0.50005 0 1 0 16.353516 15.353516 L 20.353516 11.353516 A 0.50005 0.50005 0 0 0 20.353516 10.646484 L 16.853516 7.1464844 A 0.50005 0.50005 0 0 0 16.494141 6.9941406 z M 15.492188 8 C 15.3623 8.00207 15.238317 8.054606 15.146484 8.1464844 L 8.1464844 15.146484 C 7.9512997 15.341749 7.9512997 15.658251 8.1464844 15.853516 L 10.146484 17.853516 C 10.341749 18.0487 10.658251 18.0487 10.853516 17.853516 L 17.853516 10.853516 C 18.048701 10.658251 18.048701 10.341749 17.853516 10.146484 L 15.853516 8.1464844 C 15.757854 8.0507785 15.627488 7.9979278 15.492188 8 z M 7.4921875 16 C 7.3053963 16.0031 7.1359108 16.110065 7.0527344 16.277344 L 6.0527344 18.277344 C 5.9570074 18.469605 5.9947424 18.701521 6.1464844 18.853516 L 7.1464844 19.853516 C 7.2984793 20.005258 7.5303952 20.042993 7.7226562 19.947266 L 9.7226562 18.947266 C 10.028177 18.794981 10.094667 18.388104 9.8535156 18.146484 L 7.8535156 16.146484 C 7.7578539 16.050778 7.6274889 15.997928 7.4921875 16 z M 5.5 19.5 L 4.5 21.5 L 6.5 20.5 L 5.5 19.5 z " transform="" style="opacity: 1; fill: #000000; fill-opacity: 1; stroke: none; stroke-width: 1px; stroke-linecap: round; stroke-linejoin: round; stroke-miterlimit: 4; stroke-dasharray: none; stroke-dashoffset: 0; stroke-opacity: 1;" />
</svg>