<svg width="26" height="26" viewBox="0 0 26 26" xmlns="http://www.w3.org/2000/svg">
<path d="m 4.8789062,4.671875 c -0.1278095,0 -0.2555813,0.04855 -0.3535156,0.1464844 L 3.8183594,5.5253906 c -0.1958686,0.1958686 -0.1958686,0.5111627 0,0.7070313 L 5.5859375,8 3.8183594,9.767578 c -0.1958686,0.195869 -0.1958686,0.511163 0,0.707031 l 0.7070312,0.707032 c 0.1958686,0.195868 0.5111627,0.195868 0.7070313,0 L 7,9.414062 8.7675781,11.181641 c 0.1958686,0.195868 0.5111629,0.195868 0.7070309,0 l 0.707032,-0.707032 c 0.195868,-0.195868 0.195868,-0.511162 0,-0.707031 L 8.4140625,8 10.181641,6.2324219 c 0.195868,-0.1958686 0.195868,-0.5111627 0,-0.7070313 L 9.474609,4.8183594 c -0.195868,-0.1958686 -0.5111623,-0.1958686 -0.7070309,0 L 7,6.5859375 5.2324219,4.8183594 C 5.1344876,4.7204251 5.0067158,4.671875 4.8789062,4.671875 Z" transform="" style="opacity: 1; fill: #000000; fill-opacity: 1; stroke: none; stroke-width: 2; stroke-linecap: round; stroke-linejoin: round; stroke-miterlimit: 4; stroke-dasharray: none; stroke-dashoffset: 0; stroke-opacity: 1;" />
<path d="M 19.492188,4 C 19.3623,4.0021 19.238317,4.05461 19.146484,4.146484 l -2,2 c -0.195184,0.195265 -0.195184,0.511766 0,0.707031 l 2,2 c 0.195265,0.195185 0.511767,0.195185 0.707032,0 l 2,-2 c 0.195184,-0.195265 0.195184,-0.511766 0,-0.707031 l -2,-2 C 19.757854,4.050778 19.627489,3.997928 19.492188,4 Z M 16.494141,6.99414 A 0.50005,0.50005 0 0 0 16.146484,7.853515 L 19.292969,11 15.646484,14.646484 a 0.50005,0.50005 0 1 0 0.707032,0.707032 l 4,-4 a 0.50005,0.50005 0 0 0 0,-0.707032 l -3.5,-3.5 A 0.50005,0.50005 0 0 0 16.494141,6.99414 Z M 15.492188,8 C 15.3623,8.0021 15.238317,8.05461 15.146484,8.146484 l -7,7 c -0.195184,0.195265 -0.195184,0.511767 0,0.707032 l 2,2 c 0.195265,0.195184 0.511767,0.195184 0.707032,0 l 7,-7 c 0.195185,-0.195265 0.195185,-0.511767 0,-0.707032 l -2,-2 C 15.757854,8.050778 15.627488,7.997927 15.492188,8 Z m -8,8 c -0.186792,0.0031 -0.356277,0.110065 -0.439454,0.277344 l -1,2 c -0.09573,0.192261 -0.05799,0.424177 0.09375,0.576172 l 1,1 c 0.151995,0.151742 0.383911,0.189477 0.576172,0.09375 l 2,-1 c 0.305521,-0.152285 0.372011,-0.559162 0.13086,-0.800782 l -2,-2 C 7.757854,16.050778 7.627489,15.997928 7.492188,16 Z M 5.5,19.5 l -1,2 2,-1 -1,-1 z" transform="" style="opacity: 1; fill: #000000; fill-opacity: 1; stroke: none; stroke-width: 1px; stroke-linecap: round; stroke-linejoin: round; stroke-miterlimit: 4; stroke-dasharray: none; stroke-dashoffset: 0; stroke-opacity: 1;" />
</svg>