<svg width="26" height="26" viewBox="0 0 26 26" xmlns="http://www.w3.org/2000/svg">
<path d="m 15.508017,5 c -0.444526,1.737e-4 -0.667105,0.5375596 -0.352887,0.8519955 l 1.732665,1.7326625 c 0,0 0.05897,0.7628052 -3.224648,4.046423 -0.489926,0.470415 0.235356,1.195698 0.705772,0.705772 3.294105,-3.294105 4.046423,-3.224647 4.046423,-3.224647 l 1.732663,1.732663 C 20.462441,11.159088 20.999827,10.936509 21,10.491983 L 21,5.4991093 C 20.999972,5.2234702 20.77653,5.0000279 20.500891,5 Z" transform="" style="opacity: 1; fill: #000000; fill-opacity: 1; stroke: none; stroke-width: 1px; stroke-linecap: butt; stroke-linejoin: round; stroke-miterlimit: 4; stroke-dasharray: none; stroke-dashoffset: 0; stroke-opacity: 1;" />
<path d="m 10.491983,21 c 0.444526,-1.74e-4 0.667105,-0.53756 0.352887,-0.851996 L 9.112205,18.415342 c 0,0 0.1285339,-0.950322 3.224648,-4.046423 0.489926,-0.470415 -0.235356,-1.195698 -0.705772,-0.705772 -3.137855,3.137855 -4.046423,3.224647 -4.046423,3.224647 L 5.851995,15.155131 C 5.537559,14.840912 5.000173,15.063491 5,15.508017 L 5,20.50089 C 5.000028,20.776529 5.22347,20.999972 5.499109,21 Z" transform="" style="opacity: 1; fill: #000000; fill-opacity: 1; stroke: none; stroke-width: 1px; stroke-linecap: butt; stroke-linejoin: round; stroke-miterlimit: 4; stroke-dasharray: none; stroke-dashoffset: 0; stroke-opacity: 1;" />
</svg>