<svg width="26" height="26" viewBox="0 0 26 26" xmlns="http://www.w3.org/2000/svg">
<path d="m 23.092002,14.79528 c 0.128589,7.6e-4 0.257534,0.0505 0.355469,0.14844 l 0.707031,0.70703 c 0.19587,0.19587 0.195869,0.51117 0,0.70703 l -4.777344,5.2793 c -0.195869,0.19587 -0.511162,0.19587 -0.707031,0 l -2.949219,-2.94922 c -0.195869,-0.19587 -0.195869,-0.51116 0,-0.70703 l 0.707032,-0.70898 c 0.195868,-0.19587 0.511162,-0.19587 0.707031,0 l 1.888672,1.89062 3.716796,-4.21875 c 0.09482,-0.10096 0.222973,-0.14919 0.351563,-0.14844 z" transform="" style="opacity: 1; fill: #ffffff; fill-opacity: 1; stroke: none; stroke-width: 1; stroke-linecap: round; stroke-linejoin: round; stroke-miterlimit: 4; stroke-dasharray: none; stroke-dashoffset: 0; stroke-opacity: 1;" />
<path d="m 12.5,19.5 -8,0 0,-13 17,0 0,4" transform="" style="opacity: 1; fill: none; fill-opacity: 1; stroke: #000000; stroke-width: 1; stroke-linecap: round; stroke-linejoin: round; stroke-miterlimit: 4; stroke-dasharray: none; stroke-dashoffset: 0; stroke-opacity: 1;" />
<path d="m 13,6.5 -2,3 -6.5,0" transform="" style="opacity: 1; fill: none; fill-opacity: 1; stroke: #000000; stroke-width: 0.99999994; stroke-linecap: round; stroke-linejoin: round; stroke-miterlimit: 4; stroke-dasharray: none; stroke-dashoffset: 0; stroke-opacity: 1;" />
<path d="m 20,12 a 6,6 0 0 0 -6,6 6,6 0 0 0 6,6 6,6 0 0 0 6,-6 6,6 0 0 0 -6,-6 z m 2.642578,2.74609 c 0.132784,0.004 0.269253,0.0603 0.367188,0.15821 l 0.707031,0.70898 c 0.195869,0.19587 0.195869,0.51116 0,0.70703 l -4.277344,4.77735 c -0.195869,0.19586 -0.511162,0.19586 -0.707031,0 l -2.449219,-2.44922 c -0.195869,-0.19587 -0.195869,-0.51117 0,-0.70703 l 0.707031,-0.70703 c 0.195869,-0.19587 0.511163,-0.19586 0.707032,0 l 1.388672,1.38867 3.216796,-3.71875 c 0.07804,-0.11442 0.207061,-0.16233 0.339844,-0.15821 z" transform="" style="opacity: 1; fill: #000000; fill-opacity: 1; stroke: none; stroke-width: 2; stroke-linecap: butt; stroke-linejoin: round; stroke-miterlimit: 4; stroke-dasharray: none; stroke-dashoffset: 0; stroke-opacity: 1;" />
</svg>