<svg width="26" height="26" viewBox="0 0 26 26" xmlns="http://www.w3.org/2000/svg">
<path d="m 17,13 a 6,6 0 0 0 -6,6 6,6 0 0 0 6,6 6,6 0 0 0 6,-6 6,6 0 0 0 -6,-6 z m 2.642578,2.74609 c 0.132784,0.004 0.269253,0.0603 0.367188,0.15821 l 0.707031,0.70898 c 0.195869,0.19587 0.195869,0.51116 0,0.70703 l -4.277344,4.77735 c -0.195869,0.19586 -0.511162,0.19586 -0.707031,0 l -2.449219,-2.44922 c -0.195869,-0.19587 -0.195869,-0.51117 0,-0.70703 l 0.707031,-0.70703 c 0.195869,-0.19587 0.511163,-0.19586 0.707032,0 l 1.388672,1.38867 3.216796,-3.71875 c 0.07804,-0.11442 0.207061,-0.16233 0.339844,-0.15821 z" transform="" style="opacity: 1; fill: #000000; fill-opacity: 1; stroke: none; stroke-width: 2; stroke-linecap: butt; stroke-linejoin: round; stroke-miterlimit: 4; stroke-dasharray: none; stroke-dashoffset: 0; stroke-opacity: 1;" />
<path d="m 9.5,20.5 -2,0 0,-15 6,0 5,5 0,1" transform="" style="opacity: 1; fill: none; fill-opacity: 1; stroke: #000000; stroke-width: 1; stroke-linecap: round; stroke-linejoin: round; stroke-miterlimit: 4; stroke-dasharray: none; stroke-dashoffset: 0; stroke-opacity: 1;" />
<path d="m 5.505707,61.00006 c 0.27289,0.004 0.491861,0.22685 0.49185,0.49992 l 0,1.49977 7.495661,0.49993 c 0.67571,-0.01 0.67571,1.00941 0,0.99985 l -7.495661,0.49992 0,1.49977 c -1.7e-4,0.44525 -0.53815,0.66819 -0.85294,0.35346 l -2.49833,-2.49962 c -0.19505,-0.19523 -0.19505,-0.51169 0,-0.70692 l 2.49833,-2.49962 c 0.0956,-0.0957 0.22588,-0.14853 0.36109,-0.14646 z" transform="" style="opacity: 1; fill: #000000; fill-opacity: 1; stroke: none; stroke-width: 1px; stroke-linecap: butt; stroke-linejoin: round; stroke-miterlimit: 4; stroke-dasharray: none; stroke-dashoffset: 0; stroke-opacity: 1;" />
<path d="m 8.5,61.5 0,-6 6,0 5,5 0,10 -11,0 0,-4" transform="" style="opacity: 1; fill: none; fill-opacity: 1; stroke: #000000; stroke-width: 1; stroke-linecap: round; stroke-linejoin: round; stroke-miterlimit: 4; stroke-dasharray: none; stroke-dashoffset: 0; stroke-opacity: 1;" />
<path d="m 12.494293,36.00006 c -0.27289,0.004 -0.49186,0.22685 -0.49185,0.49992 l 0,1.49977 -7.49566,0.49993 c -0.675711,-0.01 -0.675711,1.00941 0,0.99985 l 7.49566,0.49992 0,1.49977 c 1.7e-4,0.44525 0.53815,0.66819 0.85294,0.35346 l 2.49833,-2.49962 c 0.19505,-0.19523 0.19505,-0.51169 0,-0.70692 l -2.49833,-2.49962 c -0.0956,-0.0957 -0.22588,-0.14853 -0.36109,-0.14646 z" transform="" style="opacity: 1; fill: #000000; fill-opacity: 1; stroke: none; stroke-width: 1px; stroke-linecap: butt; stroke-linejoin: round; stroke-miterlimit: 4; stroke-dasharray: none; stroke-dashoffset: 0; stroke-opacity: 1;" />
<path d="m 8.5,36.5 0,-6 6,0 5,5 0,10 -11,0 0,-4" transform="" style="opacity: 1; fill: none; fill-opacity: 1; stroke: #000000; stroke-width: 1; stroke-linecap: round; stroke-linejoin: round; stroke-miterlimit: 4; stroke-dasharray: none; stroke-dashoffset: 0; stroke-opacity: 1;" />
<path d="M 33.5,30 A 0.50005,0.50005 0 0 0 33,30.5 l 0,6.76367 3.001953,-0.19922 0,-0.56445 c -2.9e-5,-0.80704 0.668128,-1.4871 1.476563,-1.5 l 0.002,0 c 0.404763,-0.006 0.795885,0.15306 1.082031,0.43945 l 2.498047,2.5 c 0.576937,0.57747 0.576937,1.54363 0,2.1211 l -2.498047,2.5 c -0.442311,0.44222 -1.124442,0.53569 -1.634766,0.32422 C 36.417458,42.67329 36.002239,42.12532 36.002,41.5 l 0,-0.56445 L 33,40.73633 33,45.5 a 0.50005,0.50005 0 0 0 0.5,0.5 l 11,0 A 0.50005,0.50005 0 0 0 45,45.5 l 0,-10 a 0.50005,0.50005 0 0 0 -0.146484,-0.35352 l -5,-5 A 0.50005,0.50005 0 0 0 39.5,30 l -6,0 z m 3.994141,6 c -0.27289,0.004 -0.492198,0.22693 -0.492188,0.5 l 0,1.5 -7.496094,0.5 c -0.675711,-0.01 -0.675711,1.00956 0,1 l 7.496094,0.5 0,1.5 c 1.7e-4,0.44525 0.538726,0.66825 0.853516,0.35352 l 2.498047,-2.5 c 0.19505,-0.19523 0.19505,-0.51181 0,-0.70704 l -2.498047,-2.5 C 37.759869,36.05078 37.629351,35.99793 37.494141,36 Z" transform="" style="opacity: 1; fill: #000000; fill-opacity: 1; stroke: none; stroke-width: 1; stroke-linecap: round; stroke-linejoin: round; stroke-miterlimit: 4; stroke-dasharray: none; stroke-dashoffset: 0; stroke-opacity: 1;" />
<path d="M 33.5,55 A 0.50005,0.50005 0 0 0 33,55.5 l 0,6.63086 5.552734,0.37109 -0.08008,-0.002 c 0.420287,-0.006 0.867651,0.1827 1.138672,0.48438 0.271021,0.30166 0.382813,0.66633 0.382813,1.01562 0,0.34929 -0.111973,0.71203 -0.382813,1.01367 -0.27084,0.30164 -0.718378,0.49233 -1.138672,0.48633 l 0.08008,-0.002 L 33,65.86914 33,70.5 a 0.50005,0.50005 0 0 0 0.5,0.5 l 11,0 A 0.50005,0.50005 0 0 0 45,70.5 l 0,-10 a 0.50005,0.50005 0 0 0 -0.146484,-0.35352 l -5,-5 A 0.50005,0.50005 0 0 0 39.5,55 l -6,0 z m -3,6 c -0.13521,-0.002 -0.265728,0.0508 -0.361328,0.14648 l -2.498047,2.5 c -0.19505,0.19523 -0.19505,0.51181 0,0.70704 l 2.498047,2.5 c 0.31479,0.31473 0.853345,0.0917 0.853516,-0.35352 l 0,-1.5 7.49414,-0.5 c 0.675711,0.01 0.675711,-1.01 0,-1 l -7.49414,-0.5 0,-1.5 C 30.992198,61.22693 30.77289,61.004 30.5,61 Z" transform="" style="opacity: 1; fill: #000000; fill-opacity: 1; stroke: none; stroke-width: 1; stroke-linecap: round; stroke-linejoin: round; stroke-miterlimit: 4; stroke-dasharray: none; stroke-dashoffset: 0; stroke-opacity: 1;" />
<path d="m 16.5,93.5 0,4 -11,0 0,-15 4,0" transform="" style="opacity: 1; fill: none; fill-opacity: 1; stroke: #000000; stroke-width: 1; stroke-linecap: round; stroke-linejoin: round; stroke-miterlimit: 4; stroke-dasharray: none; stroke-dashoffset: 0; stroke-opacity: 1;" />
<path d="m 9.5,90.5 0,-12 6,0 5,5 0,10 -8,0" transform="" style="opacity: 1; fill: none; fill-opacity: 1; stroke: #000000; stroke-width: 1; stroke-linecap: round; stroke-linejoin: round; stroke-miterlimit: 4; stroke-dasharray: none; stroke-dashoffset: 0; stroke-opacity: 1;" />
<path d="m 11.606249,87.15177 c -0.190134,0.19579 -0.18739,0.5082 0.0057,0.70128 l 1.060498,1.0605 -4.946729,5.65374 c -0.484871,0.47073 0.235961,1.19156 0.707001,0.707 l 5.653729,-4.94674 1.060498,1.0605 C 15.461905,91.70277 15.999957,91.48 16,91.03486 l -9.13e-4,-3.53408 C 15.99896,87.22481 15.775189,87.00104 15.499219,87.00091 L 11.965135,87 c -0.13527,-7e-5 -0.264748,0.0547 -0.358886,0.15177 z" transform="" style="opacity: 1; fill: #000000; fill-opacity: 1; stroke: none; stroke-width: 1px; stroke-linecap: butt; stroke-linejoin: round; stroke-miterlimit: 4; stroke-dasharray: none; stroke-dashoffset: 0; stroke-opacity: 1;" />
<path d="m 34.5,78 c -0.276131,3e-5 -0.499972,0.22387 -0.5,0.5 l 0,1 0,2.5 0,9.55469 2.300781,-2.59961 -0.396484,-0.39453 C 35.333171,87.98945 35.324806,87.03573 35.888667,86.45508 36.170965,86.16401 36.559305,85.99979 36.964844,86 L 40.5,86 c 0.816288,3.8e-4 1.499624,0.68371 1.5,1.5 l 0,3.53516 c -6e-5,0.62546 -0.41539,1.17345 -0.925781,1.38476 -0.51039,0.21132 -1.192431,0.11778 -1.634766,-0.32422 L 39.044922,91.69922 36.445312,94 42,94 l 2.5,0 0.03516,0 0.96484,0 c 0.276131,-3e-5 0.499972,-0.22387 0.5,-0.5 l 0,-10 c -2.4e-5,-0.1326 -0.05271,-0.25976 -0.146484,-0.35352 l -5,-5 C 40.759759,78.05271 40.632599,78.00002 40.5,78 Z m -4,4 c -0.276131,3e-5 -0.499972,0.22387 -0.5,0.5 l 0,15 c 2.8e-5,0.27613 0.223869,0.49997 0.5,0.5 l 11,0 c 0.276131,-3e-5 0.499972,-0.22387 0.5,-0.5 l 0,-2.5 -6.683594,0 -1.220703,1.02344 0.05469,-0.0527 c -0.292988,0.30139 -0.743634,0.48467 -1.148438,0.46289 -0.404804,-0.0218 -0.741294,-0.20028 -0.988281,-0.44727 -0.246987,-0.24698 -0.425596,-0.58333 -0.447266,-0.98828 -0.02167,-0.40495 0.161305,-0.85565 0.462891,-1.14844 l -0.05273,0.0547 L 33,92.68359 33,82 Z m 6.464844,5 c -0.13527,-7e-5 -0.265237,0.0553 -0.359375,0.15234 -0.190134,0.1958 -0.187231,0.50809 0.0059,0.70118 l 1.060547,1.06054 -4.945313,5.65235 c -0.48487,0.47073 0.235992,1.19159 0.707032,0.70703 l 5.652344,-4.94531 1.060546,1.06054 C 40.461443,91.70339 40.999957,91.48027 41,91.03516 L 41,87.5 C 40.999873,87.22403 40.77597,87.00013 40.5,87 Z" transform="" style="opacity: 1; fill: #000000; fill-opacity: 1; stroke: none; stroke-width: 1px; stroke-linecap: butt; stroke-linejoin: round; stroke-miterlimit: 4; stroke-dasharray: none; stroke-dashoffset: 0; stroke-opacity: 1;" />
</svg>